<svg width="108" height="108" viewBox="0 0 108 108" fill="none" xmlns="http://www.w3.org/2000/svg">
<path d="M48.281 37.0497C48.1917 37.0557 48.1016 37.0718 48.0132 37.0888C47.8354 37.1237 47.6602 37.1756 47.4859 37.2555C47.3116 37.3363 47.1415 37.4418 46.9714 37.5676C46.8014 37.6935 46.6364 37.8448 46.4705 38.0158L46.3779 38.1127C46.3251 38.1603 46.2724 38.2063 46.2197 38.2581C46.0666 38.4061 45.9297 38.5549 45.8021 38.702L8.91459 76.7325C8.74876 76.9034 8.6008 77.0735 8.47919 77.247C8.35843 77.4205 8.25979 77.5939 8.18495 77.77C8.11012 77.946 8.05654 78.1271 8.02678 78.3057C7.99702 78.4843 7.99362 78.6646 8.00892 78.8466C8.02423 79.0286 8.0625 79.2071 8.12288 79.3917C8.1841 79.5754 8.26744 79.7624 8.37374 79.9495C8.47834 80.1375 8.6076 80.3195 8.76067 80.5074C8.91289 80.6953 9.08637 80.8918 9.28366 81.0831C9.48436 81.2778 9.6893 81.4471 9.88574 81.5976C10.0822 81.7464 10.2727 81.8774 10.4657 81.9803C10.6579 82.0832 10.8493 82.1597 11.0372 82.2175C11.2251 82.2754 11.4114 82.3153 11.5951 82.3272C11.7787 82.3391 11.9607 82.3264 12.1402 82.2924C12.3196 82.2584 12.4931 82.2005 12.6674 82.1206C12.8426 82.0407 13.0152 81.9386 13.1861 81.8127C13.3562 81.6869 13.5254 81.5398 13.6913 81.3688L48.5489 45.4346L72.104 69.2176C72.2715 69.3868 72.439 69.5356 72.6091 69.6615C72.78 69.7873 72.9527 69.8894 73.1278 69.9693C73.3022 70.0493 73.4808 70.1113 73.6593 70.1453C73.8388 70.1794 74.0208 70.1879 74.2044 70.176C74.3881 70.1641 74.5701 70.1241 74.758 70.0663C74.946 70.0084 75.1373 69.9319 75.3295 69.829C75.5225 69.7261 75.713 69.6002 75.9095 69.4514C76.1059 69.3018 76.3109 69.1283 76.5116 68.9327C76.7088 68.7413 76.8823 68.55 77.0345 68.3612C77.1876 68.1733 77.316 67.987 77.4215 67.7991C77.5278 67.612 77.6111 67.4249 77.6723 67.2413C77.7336 67.0576 77.7752 66.8781 77.7914 66.6961C77.8067 66.515 77.7991 66.3347 77.7693 66.1553C77.7395 65.9767 77.686 65.7998 77.6111 65.6238C77.5363 65.4478 77.4376 65.27 77.3169 65.0966C77.1961 64.9231 77.0541 64.7521 76.8866 64.5821L50.9241 38.3602C50.89 38.3262 50.8628 38.293 50.8271 38.259C50.811 38.2437 50.7948 38.2343 50.7786 38.2199L50.5805 38.0175C50.413 37.8482 50.2454 37.6952 50.0754 37.5693C49.9053 37.4435 49.7352 37.338 49.5609 37.2572C49.3865 37.1764 49.2114 37.1254 49.0336 37.0905C48.8746 37.0591 48.7164 37.0463 48.5549 37.0514C48.5362 37.0506 48.5166 37.0523 48.4979 37.0514C48.4265 37.0489 48.3516 37.0446 48.281 37.0497Z" fill="#9747FF"/>
<path d="M26.2979 44.5283L25.3511 44.0946C23.2277 43.122 20.7179 44.0549 19.7453 46.1783L19.3117 47.1252C18.3391 49.2486 19.272 51.7584 21.3954 52.7309L22.3423 53.1646C24.4657 54.1372 26.9754 53.2043 27.948 51.0809L28.3817 50.1339C29.3542 48.0106 28.4213 45.5008 26.2979 44.5283Z" fill="#9747FF"/>
<path d="M23.7887 39.1478L24.878 39.9695C27.309 41.8033 30.7663 41.3192 32.6001 38.8882L33.4178 37.8041C35.2516 35.3731 34.7675 31.9159 32.3365 30.0821L31.2472 29.2604C28.8162 27.4266 25.359 27.9107 23.5252 30.3417L22.7074 31.4258C20.8736 33.8568 21.3577 37.314 23.7887 39.1478Z" fill="#9747FF"/>
<path d="M46.6901 29.1627L48.2483 27.9364C51.7426 25.1867 52.3462 20.125 49.5965 16.6308L48.3702 15.0725C45.6206 11.5783 40.5589 10.9747 37.0646 13.7244L35.5064 14.9506C32.0121 17.7003 31.4085 22.762 34.1582 26.2562L35.3844 27.8145C38.1341 31.3087 43.1958 31.9123 46.6901 29.1627Z" fill="#9747FF"/>
<path d="M23.644 56.7006C23.9238 56.7006 24.19 56.7142 24.4349 56.744C24.6798 56.7737 24.906 56.8197 25.1161 56.8792C25.3261 56.9387 25.5166 57.0127 25.6918 57.102C25.867 57.1913 26.0268 57.2976 26.1663 57.4166C26.3066 57.5357 26.4308 57.6692 26.5354 57.8189C26.64 57.9677 26.725 58.1293 26.7947 58.3078C26.8645 58.4864 26.9181 58.6803 26.9529 58.8887C26.9878 59.097 27.0056 59.3224 27.0056 59.5613V93.6961C27.0056 93.9351 26.9878 94.1604 26.9529 94.3688C26.9181 94.5771 26.8645 94.771 26.7947 94.9496C26.725 95.1282 26.6408 95.294 26.5354 95.4428C26.4308 95.5917 26.3066 95.7252 26.1663 95.8442C26.026 95.9633 25.867 96.0653 25.6918 96.1546C25.5166 96.2439 25.3261 96.3222 25.1161 96.3817C24.906 96.4421 24.6798 96.4829 24.4349 96.5126C24.19 96.5416 23.9238 96.5603 23.644 96.5603C23.3694 96.5603 23.1108 96.5416 22.8702 96.5126C22.6295 96.4837 22.4084 96.4438 22.2018 96.3817C21.9951 96.3213 21.8063 96.2439 21.6346 96.1546C21.4628 96.0653 21.3063 95.9641 21.1685 95.8442C21.0308 95.7252 20.9117 95.5917 20.808 95.4428C20.7051 95.294 20.6175 95.1282 20.5486 94.9496C20.4797 94.771 20.4295 94.5771 20.3947 94.3688C20.3607 94.1604 20.3462 93.9342 20.3462 93.6961V59.5613C20.3462 59.3224 20.3598 59.097 20.3947 58.8887C20.4287 58.6803 20.4797 58.4864 20.5486 58.3078C20.6175 58.1293 20.7051 57.9677 20.808 57.8189C20.9109 57.6701 21.0308 57.5365 21.1685 57.4166C21.3063 57.2976 21.4628 57.1913 21.6346 57.102C21.8063 57.0127 21.9951 56.9387 22.2018 56.8792C22.4084 56.8197 22.6295 56.7737 22.8702 56.744C23.1108 56.7142 23.3685 56.7006 23.644 56.7006Z" fill="black"/>
<path d="M43.7202 60.0758C43.4549 60.0758 43.1896 60.0869 42.9251 60.1107C42.6598 60.1345 42.3945 60.1728 42.13 60.2204C41.8647 60.268 41.5993 60.325 41.3349 60.3964C41.0696 60.4679 40.8042 60.552 40.5398 60.6473C40.2744 60.7425 40.0091 60.8497 39.7446 60.9679C39.4793 61.0869 39.214 61.2162 38.9495 61.3591C38.6842 61.5019 38.4189 61.6584 38.1544 61.8251C37.8891 61.9918 37.628 62.1669 37.3635 62.3566C37.0838 62.5462 36.8193 62.7503 36.5769 62.9672C36.3346 63.1849 36.1092 63.4162 35.9043 63.6611C35.6993 63.906 35.5139 64.1662 35.3464 64.4392C35.1789 64.7113 35.0326 64.9962 34.9025 65.2964C34.7724 65.5966 34.6576 65.9095 34.5598 66.2369C34.462 66.5643 34.3829 66.9062 34.3183 67.2608C34.2536 67.6154 34.2018 67.9853 34.1686 68.368C34.1363 68.7507 34.1201 69.1487 34.1201 69.5586V93.6757C34.1201 93.9155 34.1388 94.1426 34.1729 94.3526C34.2069 94.5627 34.2579 94.7574 34.3268 94.9369C34.3957 95.1171 34.4833 95.2838 34.5861 95.4335C34.689 95.5832 34.809 95.7175 34.9467 95.8374C35.0845 95.9573 35.241 96.0594 35.4127 96.1495C35.5845 96.2397 35.7733 96.3179 35.9799 96.3783C36.1866 96.4387 36.4077 96.4803 36.6475 96.5101C36.8882 96.5399 37.1458 96.5586 37.4214 96.5586C37.696 96.5586 37.9546 96.5399 38.1952 96.5101C38.4359 96.4803 38.6612 96.4387 38.8679 96.3783C39.0745 96.3179 39.2633 96.2397 39.4351 96.1495C39.6069 96.0594 39.7591 95.9573 39.8969 95.8374C40.0346 95.7175 40.1588 95.5832 40.2617 95.4335C40.3646 95.2838 40.4479 95.1171 40.5168 94.9369C40.5857 94.7566 40.6359 94.5627 40.6707 94.3526C40.7047 94.1426 40.7234 93.9155 40.7234 93.6757V71.1105C40.7234 70.8308 40.7413 70.5603 40.7762 70.2976C40.811 70.0348 40.8646 69.7822 40.9343 69.5373C41.0041 69.2924 41.0934 69.0577 41.198 68.8298C41.3026 68.6019 41.4225 68.3808 41.5628 68.1707C41.6274 68.0508 41.7048 67.942 41.7873 67.8365C41.8698 67.7319 41.9599 67.6324 42.0594 67.5423C42.1598 67.4521 42.2669 67.3713 42.3843 67.2965C42.5016 67.2217 42.6275 67.1545 42.7618 67.0941C42.897 67.0337 43.0442 66.981 43.1972 66.9359C43.3495 66.8909 43.511 66.8518 43.6803 66.822C43.8503 66.7922 44.0289 66.771 44.216 66.7565C44.4031 66.7412 44.5995 66.7344 44.8045 66.7344H52.3016C52.5014 66.7344 52.6944 66.7412 52.8773 66.7565C53.0601 66.7718 53.2336 66.7922 53.4003 66.822C53.5669 66.8518 53.7251 66.8909 53.8748 66.9359C54.0245 66.981 54.1639 67.0337 54.2966 67.0941C54.4292 67.1545 54.5542 67.2217 54.6699 67.2965C54.7855 67.3713 54.8919 67.453 54.9905 67.5423C55.0891 67.6324 55.181 67.7319 55.2626 67.8365C55.3443 67.9411 55.4174 68.0508 55.482 68.1707L55.4208 68.1137C55.5807 68.3536 55.7227 68.5942 55.8426 68.8391C55.9625 69.084 56.0611 69.3315 56.1411 69.5815C56.221 69.8315 56.2814 70.0867 56.3214 70.3418C56.3613 70.5969 56.3826 70.8512 56.3826 71.1105V93.6757C56.3826 93.9155 56.3962 94.1426 56.4311 94.3526C56.4651 94.5627 56.5204 94.7574 56.5892 94.9369C56.6581 95.1171 56.7406 95.2838 56.8444 95.4335C56.9473 95.5832 57.0672 95.7175 57.2049 95.8374C57.3427 95.9573 57.4992 96.0594 57.6709 96.1495C57.8427 96.2397 58.0315 96.3179 58.2381 96.3783C58.4448 96.4387 58.6701 96.4803 58.9108 96.5101C59.1515 96.5399 59.4091 96.5586 59.6847 96.5586C59.9593 96.5586 60.2179 96.5399 60.4585 96.5101C60.6992 96.4803 60.9203 96.4387 61.1261 96.3783C61.3327 96.3179 61.5215 96.2397 61.6933 96.1495C61.8651 96.0594 62.0216 95.9573 62.1593 95.8374C62.2971 95.7175 62.4161 95.5832 62.5199 95.4335C62.6228 95.2838 62.7104 95.1171 62.7792 94.9369C62.8481 94.7566 62.8983 94.5627 62.9332 94.3526C62.9672 94.1426 62.9859 93.9155 62.9859 93.6757V69.5586C62.9859 69.1487 62.9672 68.7498 62.9332 68.368C62.8992 67.9853 62.8473 67.6154 62.7792 67.2608C62.7121 66.9062 62.6304 66.5643 62.5284 66.2369C62.4272 65.9095 62.3073 65.5966 62.1721 65.2964C62.0369 64.9962 61.888 64.7122 61.7197 64.4392C61.5513 64.1671 61.3642 63.906 61.1618 63.6611C60.9594 63.4162 60.7392 63.184 60.5027 62.9672C60.2663 62.7495 60.0121 62.5462 59.7425 62.3566C59.4678 62.1669 59.1931 61.9909 58.921 61.8251C58.6489 61.6593 58.3776 61.5019 58.108 61.3591C57.8385 61.2162 57.5714 61.0869 57.3036 60.9679C57.0357 60.8488 56.7687 60.7417 56.5033 60.6473C56.238 60.552 55.9753 60.4679 55.7125 60.3964C55.4497 60.325 55.1903 60.268 54.9301 60.2204C54.6699 60.1728 54.4097 60.1345 54.152 60.1107C53.8943 60.0869 53.6384 60.0758 53.3833 60.0758H43.7202Z" fill="black"/>
<path d="M74.827 48.1975C74.5523 48.1975 74.2938 48.2111 74.0531 48.2417C73.8125 48.2715 73.5871 48.3183 73.3805 48.3778C73.1738 48.4382 72.985 48.5122 72.8133 48.6023C72.6415 48.6925 72.4893 48.7988 72.3515 48.9187C72.2137 49.0386 72.0896 49.1729 71.9867 49.3226C71.8838 49.4723 71.8004 49.6389 71.7316 49.8192C71.6627 49.9995 71.6125 50.1934 71.5776 50.4034C71.5436 50.6135 71.5249 50.8354 71.5249 51.0761V93.6766C71.5249 93.9164 71.5436 94.1434 71.5776 94.3535C71.6117 94.5635 71.6627 94.7583 71.7316 94.9377C71.8004 95.118 71.8829 95.2847 71.9867 95.4343C72.0896 95.584 72.2137 95.7184 72.3515 95.8383C72.4893 95.9582 72.6406 96.0602 72.8133 96.1504C72.985 96.2405 73.1738 96.3188 73.3805 96.3791C73.5871 96.4395 73.8125 96.4812 74.0531 96.5109C74.2938 96.5407 74.5515 96.5594 74.827 96.5594C75.1017 96.5594 75.3602 96.5407 75.6009 96.5109C75.8415 96.4812 76.0626 96.4395 76.2684 96.3791C76.4751 96.3188 76.6639 96.2405 76.8356 96.1504C77.0074 96.0602 77.1639 95.9582 77.3016 95.8383C77.4394 95.7184 77.5585 95.584 77.6622 95.4343C77.7651 95.2847 77.8527 95.118 77.9216 94.9377C77.9905 94.7574 78.0406 94.5635 78.0755 94.3535C78.1095 94.1434 78.1282 93.9164 78.1282 93.6766V66.7336L89.708 66.7344C89.9079 66.7344 90.1009 66.7412 90.2838 66.7565C90.4666 66.7718 90.6409 66.7922 90.8067 66.822C90.9734 66.8518 91.1316 66.8909 91.2813 66.936C91.4309 66.981 91.5704 67.0337 91.7031 67.0941C91.8357 67.1545 91.9565 67.2217 92.0721 67.2965C92.1878 67.3714 92.2983 67.453 92.397 67.5423C92.4956 67.6324 92.5832 67.7319 92.6649 67.8365C92.7465 67.9411 92.8196 68.0508 92.8843 68.1707L92.8273 68.1137C92.9872 68.3536 93.1249 68.5942 93.2448 68.8391C93.3647 69.084 93.4676 69.3315 93.5484 69.5815C93.6284 69.8315 93.6887 70.0867 93.7287 70.3418C93.7687 70.5969 93.7857 70.8512 93.7857 71.1105V93.6757C93.7857 93.9155 93.8044 94.1426 93.8384 94.3526C93.8724 94.5627 93.9234 94.7574 93.9923 94.9369C94.0612 95.1171 94.1488 95.2838 94.2517 95.4335C94.3546 95.5832 94.4745 95.7175 94.6123 95.8374C94.75 95.9573 94.9065 96.0594 95.0783 96.1495C95.2501 96.2397 95.4388 96.3179 95.6455 96.3783C95.8521 96.4387 96.0732 96.4803 96.313 96.5101C96.5537 96.5399 96.8114 96.5586 97.0869 96.5586C97.3616 96.5586 97.6192 96.5399 97.8608 96.5101C98.1014 96.4803 98.3268 96.4387 98.5334 96.3783C98.7401 96.3179 98.928 96.2397 99.1006 96.1495C99.2724 96.0594 99.4246 95.9573 99.5624 95.8374C99.7002 95.7175 99.8192 95.5832 99.923 95.4335C100.026 95.2838 100.114 95.1171 100.182 94.9369C100.251 94.7566 100.301 94.5627 100.336 94.3526C100.37 94.1426 100.389 93.9155 100.389 93.6757V69.5586C100.389 69.1487 100.375 68.7498 100.341 68.368C100.307 67.9853 100.255 67.6154 100.187 67.2608C100.119 66.9062 100.033 66.5643 99.9315 66.2369C99.8303 65.9095 99.7146 65.5966 99.5803 65.2964C99.445 64.9962 99.292 64.7122 99.1236 64.4392C98.9552 64.1671 98.7681 63.906 98.5657 63.6611C98.3633 63.4162 98.1473 63.184 97.9109 62.9672C97.6745 62.7495 97.4211 62.5462 97.1507 62.3566C96.876 62.1669 96.6013 61.9909 96.3292 61.8251C96.0571 61.6584 95.7858 61.5019 95.5162 61.3591C95.2458 61.2162 94.9754 61.0869 94.7075 60.9679C94.4396 60.8488 94.1769 60.7417 93.9124 60.6473C93.6471 60.552 93.3792 60.4679 93.1173 60.3964C92.8545 60.325 92.5951 60.268 92.3349 60.2204C92.0747 60.1728 91.8145 60.1345 91.5568 60.1107C91.2991 60.0869 91.0474 60.0758 90.7923 60.0758H78.1316V51.0761C78.1316 50.8363 78.1129 50.6135 78.0789 50.4034C78.0449 50.1934 77.9939 49.9987 77.925 49.8192C77.8561 49.6389 77.7685 49.4723 77.6656 49.3226C77.5627 49.1729 77.4428 49.0386 77.305 48.9187C77.1673 48.7988 77.0108 48.6925 76.839 48.6023C76.6672 48.5122 76.4785 48.4382 76.2718 48.3778C76.0652 48.3174 75.8441 48.2715 75.6043 48.2417C75.3636 48.212 75.1017 48.1975 74.827 48.1975Z" fill="black"/>
</svg>
